<svg width="26" height="26" viewBox="0 0 26 26" fill="none" xmlns="http://www.w3.org/2000/svg">
<path id="Combined Shape" d="M13 21C13.5523 21 14 21.4477 14 22V25C14 25.5523 13.5523 26 13 26C12.4477 26 12 25.5523 12 25V22C12 21.4477 12.4477 21 13 21ZM5.92871 18.6572C6.31924 18.2667 6.95225 18.2667 7.34277 18.6572C7.7333 19.0478 7.7333 19.6808 7.34277 20.0713L5.22168 22.1924C4.83115 22.5828 4.19812 22.5829 3.80762 22.1924C3.41712 21.8019 3.41716 21.1688 3.80762 20.7783L5.92871 18.6572ZM18.6572 18.6572C19.0478 18.2667 19.6808 18.2667 20.0713 18.6572L22.1924 20.7783C22.5828 21.1688 22.5829 21.8019 22.1924 22.1924C21.8019 22.5829 21.1688 22.5828 20.7783 22.1924L18.6572 20.0713C18.2667 19.6808 18.2667 19.0478 18.6572 18.6572ZM13 8C15.7614 8 18 10.2386 18 13C18 15.7614 15.7614 18 13 18C10.2386 18 8 15.7614 8 13C8 10.2386 10.2386 8 13 8ZM4 12C4.55228 12 5 12.4477 5 13C5 13.5523 4.55228 14 4 14H1C0.447715 14 0 13.5523 0 13C0 12.4477 0.447715 12 1 12H4ZM25 12C25.5523 12 26 12.4477 26 13C26 13.5523 25.5523 14 25 14H22C21.4477 14 21 13.5523 21 13C21 12.4477 21.4477 12 22 12H25ZM3.80762 3.80762C4.19812 3.41712 4.83115 3.41716 5.22168 3.80762L7.34277 5.92871C7.7333 6.31924 7.7333 6.95225 7.34277 7.34277C6.95225 7.7333 6.31924 7.7333 5.92871 7.34277L3.80762 5.22168C3.41716 4.83115 3.41712 4.19812 3.80762 3.80762ZM20.7783 3.80762C21.1688 3.41716 21.8019 3.41712 22.1924 3.80762C22.5829 4.19812 22.5828 4.83115 22.1924 5.22168L20.0713 7.34277C19.6808 7.7333 19.0478 7.7333 18.6572 7.34277C18.2667 6.95225 18.2667 6.31924 18.6572 5.92871L20.7783 3.80762ZM13 0C13.5523 0 14 0.447715 14 1V4C14 4.55228 13.5523 5 13 5C12.4477 5 12 4.55228 12 4V1C12 0.447715 12.4477 0 13 0Z" fill="white"/>
</svg>
